<?xml version="1.0" standalone="no"?><svg xmlns="http://www.w3.org/2000/svg" viewBox="0 0 1440 320"><path fill="#4e9af1 " fill-opacity="1" d="M0,128L0,160L68.6,160L68.6,288L137.1,288L137.1,64L205.7,64L205.7,224L274.3,224L274.3,128L342.9,128L342.9,0L411.4,0L411.4,224L480,224L480,64L548.6,64L548.6,128L617.1,128L617.1,160L685.7,160L685.7,192L754.3,192L754.3,256L822.9,256L822.9,256L891.4,256L891.4,192L960,192L960,224L1028.6,224L1028.6,320L1097.1,320L1097.1,224L1165.7,224L1165.7,96L1234.3,96L1234.3,32L1302.9,32L1302.9,256L1371.4,256L1371.4,0L1440,0L1440,320L1371.4,320L1371.4,320L1302.9,320L1302.9,320L1234.3,320L1234.3,320L1165.7,320L1165.7,320L1097.1,320L1097.1,320L1028.6,320L1028.6,320L960,320L960,320L891.4,320L891.4,320L822.9,320L822.9,320L754.3,320L754.3,320L685.7,320L685.7,320L617.1,320L617.1,320L548.6,320L548.6,320L480,320L480,320L411.4,320L411.4,320L342.9,320L342.9,320L274.3,320L274.3,320L205.7,320L205.7,320L137.1,320L137.1,320L68.6,320L68.6,320L0,320L0,320Z"></path></svg>